G75*
G70*
%OFA0B0*%
%FSLAX24Y24*%
%IPPOS*%
%LPD*%
%AMOC8*
5,1,8,0,0,1.08239X$1,22.5*
%
%ADD10C,0.0020*%
%ADD11C,0.0010*%
D10*
X006781Y002209D02*
X007731Y002209D01*
X007931Y002459D01*
X008381Y002459D01*
X008381Y001509D01*
X009981Y001509D01*
X009981Y001009D01*
X011281Y001009D01*
X011281Y004159D01*
X008381Y004159D01*
X008381Y003459D01*
X007981Y003459D01*
X007781Y003709D01*
X006781Y003709D01*
X006781Y002209D01*
D11*
X008031Y002334D02*
X008031Y002084D01*
X008033Y002066D01*
X008038Y002048D01*
X008046Y002031D01*
X008057Y002017D01*
X008071Y002004D01*
X008086Y001994D01*
X008104Y001988D01*
X008122Y001984D01*
X008140Y001984D01*
X008158Y001988D01*
X008176Y001994D01*
X008191Y002004D01*
X008205Y002017D01*
X008216Y002031D01*
X008224Y002048D01*
X008229Y002066D01*
X008231Y002084D01*
X008231Y002334D01*
X008229Y002352D01*
X008224Y002370D01*
X008216Y002387D01*
X008205Y002401D01*
X008191Y002414D01*
X008176Y002424D01*
X008158Y002430D01*
X008140Y002434D01*
X008122Y002434D01*
X008104Y002430D01*
X008086Y002424D01*
X008071Y002414D01*
X008057Y002401D01*
X008046Y002387D01*
X008038Y002370D01*
X008033Y002352D01*
X008031Y002334D01*
X008031Y003584D02*
X008031Y003834D01*
X008033Y003852D01*
X008038Y003870D01*
X008046Y003887D01*
X008057Y003901D01*
X008071Y003914D01*
X008086Y003924D01*
X008104Y003930D01*
X008122Y003934D01*
X008140Y003934D01*
X008158Y003930D01*
X008176Y003924D01*
X008191Y003914D01*
X008205Y003901D01*
X008216Y003887D01*
X008224Y003870D01*
X008229Y003852D01*
X008231Y003834D01*
X008231Y003584D01*
X008229Y003566D01*
X008224Y003548D01*
X008216Y003531D01*
X008205Y003517D01*
X008191Y003504D01*
X008176Y003494D01*
X008158Y003488D01*
X008140Y003484D01*
X008122Y003484D01*
X008104Y003488D01*
X008086Y003494D01*
X008071Y003504D01*
X008057Y003517D01*
X008046Y003531D01*
X008038Y003548D01*
X008033Y003566D01*
X008031Y003584D01*
X011431Y003584D02*
X011431Y003834D01*
X011433Y003852D01*
X011438Y003870D01*
X011446Y003887D01*
X011457Y003901D01*
X011471Y003914D01*
X011486Y003924D01*
X011504Y003930D01*
X011522Y003934D01*
X011540Y003934D01*
X011558Y003930D01*
X011576Y003924D01*
X011591Y003914D01*
X011605Y003901D01*
X011616Y003887D01*
X011624Y003870D01*
X011629Y003852D01*
X011631Y003834D01*
X011631Y003584D01*
X011629Y003566D01*
X011624Y003548D01*
X011616Y003531D01*
X011605Y003517D01*
X011591Y003504D01*
X011576Y003494D01*
X011558Y003488D01*
X011540Y003484D01*
X011522Y003484D01*
X011504Y003488D01*
X011486Y003494D01*
X011471Y003504D01*
X011457Y003517D01*
X011446Y003531D01*
X011438Y003548D01*
X011433Y003566D01*
X011431Y003584D01*
X011431Y002334D02*
X011431Y002084D01*
X011433Y002066D01*
X011438Y002048D01*
X011446Y002031D01*
X011457Y002017D01*
X011471Y002004D01*
X011486Y001994D01*
X011504Y001988D01*
X011522Y001984D01*
X011540Y001984D01*
X011558Y001988D01*
X011576Y001994D01*
X011591Y002004D01*
X011605Y002017D01*
X011616Y002031D01*
X011624Y002048D01*
X011629Y002066D01*
X011631Y002084D01*
X011631Y002334D01*
X011629Y002352D01*
X011624Y002370D01*
X011616Y002387D01*
X011605Y002401D01*
X011591Y002414D01*
X011576Y002424D01*
X011558Y002430D01*
X011540Y002434D01*
X011522Y002434D01*
X011504Y002430D01*
X011486Y002424D01*
X011471Y002414D01*
X011457Y002401D01*
X011446Y002387D01*
X011438Y002370D01*
X011433Y002352D01*
X011431Y002334D01*
M02*
