G75*
G70*
%OFA0B0*%
%FSLAX24Y24*%
%IPPOS*%
%LPD*%
%AMOC8*
5,1,8,0,0,1.08239X$1,22.5*
%
%ADD10C,0.0020*%
%ADD11C,0.0050*%
%ADD12C,0.0010*%
%ADD13C,0.0040*%
D10*
X006781Y002209D02*
X007731Y002209D01*
X007931Y002459D01*
X008381Y002459D01*
X008381Y001509D01*
X009981Y001509D01*
X009981Y001009D01*
X011281Y001009D01*
X011281Y004159D01*
X008381Y004159D01*
X008381Y003459D01*
X007981Y003459D01*
X007781Y003709D01*
X006781Y003709D01*
X006781Y002209D01*
X008483Y001824D02*
X008480Y001801D01*
X008480Y001646D01*
X008525Y001646D01*
X008525Y001819D01*
X008533Y001836D01*
X008543Y001851D01*
X008558Y001856D01*
X008568Y001861D01*
X008608Y001861D01*
X008625Y001846D01*
X008635Y001831D01*
X008638Y001826D01*
X008638Y001646D01*
X008683Y001646D01*
X008683Y001826D01*
X008695Y001844D01*
X008708Y001854D01*
X008728Y001864D01*
X008758Y001864D01*
X008775Y001856D01*
X008785Y001846D01*
X008793Y001834D01*
X008800Y001819D01*
X008800Y001644D01*
X008843Y001644D01*
X008843Y001816D01*
X008833Y001851D01*
X008818Y001876D01*
X008795Y001894D01*
X008763Y001906D01*
X008723Y001906D01*
X008703Y001899D01*
X008678Y001884D01*
X008668Y001874D01*
X008658Y001874D01*
X008645Y001881D01*
X008630Y001894D01*
X008613Y001904D01*
X008600Y001906D01*
X008565Y001906D01*
X008548Y001901D01*
X008528Y001891D01*
X008510Y001876D01*
X008498Y001861D01*
X008488Y001839D01*
X008483Y001824D01*
X008908Y001801D02*
X008915Y001829D01*
X008925Y001849D01*
X008963Y001886D01*
X008990Y001901D01*
X009018Y001906D01*
X009060Y001906D01*
X009088Y001896D01*
X009115Y001879D01*
X009138Y001856D01*
X009153Y001834D01*
X009163Y001796D01*
X009163Y001749D01*
X009158Y001731D01*
X009150Y001711D01*
X009140Y001694D01*
X009123Y001676D01*
X009103Y001659D01*
X009083Y001649D01*
X009058Y001641D01*
X009048Y001641D01*
X009045Y001641D02*
X009013Y001641D01*
X008990Y001646D01*
X008965Y001656D01*
X008943Y001676D01*
X008925Y001701D01*
X008913Y001719D01*
X008908Y001744D01*
X008908Y001801D01*
X008955Y001799D02*
X008963Y001819D01*
X008975Y001839D01*
X008990Y001854D01*
X009005Y001861D01*
X009013Y001864D01*
X009053Y001864D01*
X009070Y001859D01*
X009090Y001846D01*
X009100Y001834D01*
X009113Y001814D01*
X009118Y001799D01*
X009118Y001749D01*
X009108Y001726D01*
X009095Y001706D01*
X009078Y001691D01*
X009060Y001681D01*
X009020Y001681D01*
X009028Y001679D02*
X009008Y001684D01*
X008988Y001694D01*
X008975Y001706D01*
X008963Y001724D01*
X008958Y001736D01*
X008955Y001746D01*
X008955Y001799D01*
X009215Y001859D02*
X009215Y001901D01*
X009265Y001901D01*
X009288Y001899D01*
X009310Y001891D01*
X009335Y001876D01*
X009353Y001859D01*
X009365Y001844D01*
X009375Y001824D01*
X009383Y001804D01*
X009388Y001786D01*
X009388Y001756D01*
X009383Y001731D01*
X009370Y001706D01*
X009358Y001691D01*
X009343Y001676D01*
X009323Y001661D01*
X009305Y001654D01*
X009285Y001649D01*
X009258Y001644D01*
X009215Y001644D01*
X009215Y001686D01*
X009265Y001686D01*
X009283Y001691D01*
X009305Y001701D01*
X009323Y001719D01*
X009335Y001736D01*
X009340Y001749D01*
X009343Y001754D01*
X009343Y001794D01*
X009333Y001809D01*
X009320Y001831D01*
X009298Y001846D01*
X009283Y001854D01*
X009258Y001859D01*
X009215Y001859D01*
X009230Y001874D02*
X009285Y001871D01*
X009330Y001839D01*
X009355Y001804D01*
X009353Y001739D01*
X009323Y001696D01*
X009285Y001676D01*
X009230Y001671D01*
X009225Y001656D02*
X009293Y001661D01*
X009343Y001694D01*
X009370Y001741D01*
X009370Y001809D01*
X009333Y001859D01*
X009285Y001886D01*
X009230Y001889D01*
X009230Y001874D01*
X009260Y001644D02*
X009258Y001644D01*
X009465Y001659D02*
X009465Y001676D01*
X009470Y001686D01*
X009483Y001699D01*
X009505Y001699D01*
X009515Y001691D01*
X009523Y001681D01*
X009523Y001661D01*
X009520Y001654D01*
X009510Y001644D01*
X009500Y001641D01*
X009483Y001659D01*
X009480Y001676D01*
X009493Y001686D01*
X009505Y001676D01*
X009503Y001661D01*
X009495Y001669D01*
X009495Y001641D02*
X009485Y001641D01*
X009478Y001644D01*
X009468Y001651D01*
X009465Y001659D01*
X009610Y001646D02*
X009610Y001786D01*
X009615Y001811D01*
X009623Y001831D01*
X009638Y001859D01*
X009658Y001879D01*
X009688Y001896D01*
X009708Y001904D01*
X009723Y001906D01*
X009763Y001906D01*
X009788Y001899D01*
X009810Y001889D01*
X009833Y001869D01*
X009850Y001846D01*
X009860Y001824D01*
X009868Y001799D01*
X009868Y001749D01*
X009855Y001711D01*
X009835Y001681D01*
X009818Y001664D01*
X009795Y001654D01*
X009765Y001641D01*
X009723Y001641D01*
X009675Y001656D01*
X009670Y001659D01*
X009663Y001659D01*
X009653Y001646D01*
X009645Y001646D01*
X009640Y001646D02*
X009610Y001646D01*
X009623Y001654D02*
X009628Y001791D01*
X009650Y001851D01*
X009680Y001874D01*
X009725Y001889D01*
X009770Y001889D01*
X009810Y001871D01*
X009845Y001824D01*
X009853Y001791D01*
X009850Y001739D01*
X009810Y001676D01*
X009763Y001654D01*
X009720Y001659D01*
X009678Y001676D01*
X009658Y001669D01*
X009643Y001659D01*
X009643Y001669D01*
X009673Y001686D01*
X009638Y001676D01*
X009648Y001699D01*
X009638Y001699D01*
X009645Y001799D01*
X009673Y001856D01*
X009730Y001876D01*
X009788Y001869D01*
X009828Y001831D01*
X009838Y001756D01*
X009823Y001714D01*
X009793Y001679D01*
X009720Y001664D01*
X009715Y001679D02*
X009695Y001686D01*
X009678Y001699D01*
X009675Y001701D01*
X009668Y001694D01*
X009660Y001699D02*
X009658Y001701D01*
X009655Y001706D01*
X009658Y001801D01*
X009663Y001814D01*
X009673Y001834D01*
X009690Y001851D01*
X009710Y001861D01*
X009718Y001864D01*
X009760Y001864D01*
X009783Y001856D01*
X009800Y001844D01*
X009813Y001826D01*
X009823Y001809D01*
X009823Y001739D01*
X009813Y001724D01*
X009795Y001699D01*
X009775Y001684D01*
X009758Y001679D01*
X009715Y001679D01*
X009925Y001689D02*
X009925Y001731D01*
X009933Y001751D01*
X009950Y001766D01*
X010058Y001814D01*
X010068Y001824D01*
X010070Y001829D01*
X010070Y001846D01*
X010065Y001856D01*
X010063Y001859D01*
X010055Y001861D01*
X009938Y001861D01*
X009938Y001901D01*
X010050Y001901D01*
X010073Y001896D01*
X010088Y001889D01*
X010103Y001874D01*
X010113Y001859D01*
X010115Y001841D01*
X010115Y001826D01*
X010108Y001809D01*
X010095Y001791D01*
X010058Y001766D01*
X009980Y001734D01*
X009970Y001721D01*
X009965Y001709D01*
X009975Y001696D01*
X009988Y001686D01*
X010115Y001686D01*
X010115Y001646D01*
X010000Y001646D01*
X009960Y001654D01*
X009940Y001666D01*
X009925Y001689D01*
X009940Y001691D02*
X009948Y001741D01*
X009970Y001764D01*
X010075Y001809D01*
X010088Y001829D01*
X010078Y001859D01*
X010063Y001874D01*
X009953Y001876D01*
X009950Y001886D01*
X010063Y001884D01*
X010093Y001869D01*
X010098Y001821D01*
X010073Y001791D01*
X009968Y001744D01*
X009958Y001714D01*
X009953Y001694D01*
X009978Y001676D01*
X009988Y001671D02*
X010103Y001671D01*
X010108Y001669D01*
X010080Y001666D01*
X010105Y001659D02*
X009978Y001661D01*
X009988Y001671D01*
X009970Y001661D02*
X009940Y001691D01*
X010113Y001649D02*
X010115Y001646D01*
X010193Y001691D02*
X010178Y001724D01*
X010168Y001756D01*
X010213Y001764D01*
X010220Y001734D01*
X010230Y001716D01*
X010245Y001701D01*
X010263Y001689D01*
X010278Y001681D01*
X010318Y001681D01*
X010325Y001686D01*
X010340Y001694D01*
X010360Y001706D01*
X010373Y001731D01*
X010383Y001756D01*
X010383Y001779D01*
X010380Y001809D01*
X010373Y001819D01*
X010365Y001831D01*
X010345Y001851D01*
X010323Y001864D01*
X010270Y001864D01*
X010258Y001856D01*
X010250Y001844D01*
X010248Y001831D01*
X010351Y001770D01*
X010331Y001740D01*
X010175Y001829D01*
X010190Y001851D01*
X010208Y001871D01*
X010225Y001886D01*
X010248Y001899D01*
X010275Y001906D01*
X010323Y001906D01*
X010340Y001901D01*
X010368Y001886D01*
X010393Y001866D01*
X010418Y001829D01*
X010425Y001801D01*
X010430Y001771D01*
X010428Y001746D01*
X010420Y001721D01*
X010403Y001691D01*
X010385Y001671D01*
X010365Y001656D01*
X010340Y001646D01*
X010320Y001641D01*
X010270Y001641D01*
X010248Y001649D01*
X010228Y001659D01*
X010210Y001671D01*
X010193Y001691D01*
X010210Y001691D02*
X010185Y001749D01*
X010203Y001746D02*
X010218Y001704D01*
X010265Y001674D01*
X010280Y001666D01*
X010323Y001666D01*
X010370Y001691D01*
X010398Y001754D01*
X010393Y001814D01*
X010373Y001849D01*
X010330Y001874D01*
X010278Y001876D01*
X010250Y001864D01*
X010238Y001846D01*
X010233Y001829D01*
X010345Y001764D01*
X010337Y001752D01*
X010195Y001834D01*
X010230Y001874D01*
X010218Y001834D01*
X010230Y001856D02*
X010270Y001894D01*
X010288Y001894D01*
X010325Y001894D02*
X010388Y001856D01*
X010405Y001814D01*
X010413Y001746D01*
X010383Y001684D01*
X010323Y001654D01*
X010268Y001654D01*
X010210Y001691D01*
X010238Y001879D02*
X010325Y001891D01*
X010478Y001904D02*
X010558Y001904D01*
X010555Y001911D01*
X010555Y001971D01*
X010603Y001971D01*
X010603Y001724D01*
X010590Y001689D01*
X010575Y001666D01*
X010553Y001654D01*
X010530Y001649D01*
X010510Y001644D01*
X010493Y001656D01*
X010530Y001664D01*
X010563Y001674D01*
X010578Y001701D01*
X010590Y001731D01*
X010590Y001956D01*
X010570Y001959D01*
X010573Y001729D01*
X010550Y001684D01*
X010490Y001666D01*
X010480Y001684D02*
X010515Y001684D01*
X010530Y001691D01*
X010540Y001699D01*
X010548Y001706D01*
X010555Y001721D01*
X010555Y001859D01*
X010548Y001861D01*
X010478Y001861D01*
X010478Y001904D01*
X010490Y001889D02*
X010560Y001889D01*
X010563Y001874D02*
X010490Y001871D01*
X010490Y001889D01*
X010678Y002019D02*
X010678Y001646D01*
X010723Y001646D01*
X010723Y001649D02*
X010723Y002019D01*
X010678Y002019D01*
X010690Y002006D02*
X010690Y001656D01*
X010708Y001656D02*
X010710Y002006D01*
X010690Y002006D01*
X010800Y001979D02*
X010800Y001971D01*
X010805Y001961D01*
X010810Y001954D01*
X010820Y001949D01*
X010828Y001951D01*
X010828Y001949D02*
X010818Y001979D01*
X010828Y001989D01*
X010838Y001981D01*
X010835Y001964D01*
X010848Y001959D02*
X010838Y001949D01*
X010828Y001949D01*
X010848Y001959D02*
X010853Y001969D01*
X010853Y001984D01*
X010845Y001996D01*
X010835Y002004D01*
X010820Y002004D01*
X010813Y001999D01*
X010803Y001989D01*
X010800Y001979D01*
X010805Y001901D02*
X010850Y001901D01*
X010850Y001646D01*
X010805Y001646D01*
X010805Y001901D01*
X010823Y001889D02*
X010818Y001659D01*
X010833Y001659D01*
X010838Y001889D01*
X010938Y001834D02*
X010953Y001856D01*
X010973Y001879D01*
X010993Y001891D01*
X011020Y001904D01*
X011035Y001906D01*
X011078Y001906D01*
X011110Y001896D01*
X011133Y001884D01*
X011150Y001866D01*
X011165Y001846D01*
X011175Y001829D01*
X011183Y001796D01*
X011183Y001751D01*
X011178Y001731D01*
X011168Y001706D01*
X011153Y001684D01*
X011130Y001661D01*
X011080Y001641D01*
X011038Y001641D01*
X010990Y001656D01*
X010973Y001661D01*
X010973Y001616D01*
X010988Y001599D01*
X011008Y001581D01*
X011028Y001571D01*
X011048Y001566D01*
X011078Y001566D01*
X011128Y001579D01*
X011138Y001539D01*
X011075Y001521D01*
X011045Y001521D01*
X011010Y001526D01*
X010988Y001539D01*
X010963Y001556D01*
X010943Y001581D01*
X010933Y001606D01*
X010925Y001634D01*
X010925Y001791D01*
X010930Y001811D01*
X010938Y001834D01*
X010945Y001811D02*
X010980Y001866D01*
X011023Y001886D01*
X011068Y001891D01*
X011120Y001871D01*
X011163Y001821D01*
X011165Y001746D01*
X011153Y001714D01*
X011120Y001669D01*
X011053Y001649D01*
X010973Y001671D01*
X010973Y001694D01*
X011038Y001664D01*
X011095Y001671D01*
X011135Y001706D01*
X011150Y001759D01*
X011143Y001826D01*
X011113Y001861D01*
X011078Y001876D01*
X011025Y001871D01*
X010985Y001859D01*
X010960Y001811D01*
X010960Y001804D02*
X010958Y001609D01*
X011005Y001559D01*
X011063Y001551D01*
X011118Y001564D01*
X011130Y001554D02*
X011063Y001536D01*
X011003Y001544D01*
X010960Y001584D01*
X010943Y001621D01*
X010943Y001801D01*
X010960Y001804D01*
X010973Y001804D02*
X010973Y001711D01*
X010968Y001714D02*
X010995Y001696D01*
X011028Y001684D01*
X011035Y001681D01*
X011078Y001681D01*
X011100Y001691D01*
X011118Y001711D01*
X011135Y001744D01*
X011138Y001809D01*
X011135Y001806D02*
X011128Y001821D01*
X011115Y001836D01*
X011103Y001849D01*
X011085Y001861D01*
X011068Y001864D01*
X011030Y001864D01*
X011010Y001854D01*
X010990Y001839D01*
X010978Y001819D01*
X010973Y001804D01*
X010505Y001644D02*
X010480Y001644D01*
X010480Y001684D01*
D11*
X010444Y002175D02*
X010396Y002223D01*
X010396Y002417D01*
X010589Y002223D01*
X010541Y002175D01*
X010444Y002175D01*
X010589Y002223D02*
X010589Y002417D01*
X010541Y002465D01*
X010444Y002465D01*
X010396Y002417D01*
X010276Y002417D02*
X010228Y002465D01*
X010131Y002465D01*
X010083Y002417D01*
X010083Y002368D01*
X010276Y002175D01*
X010083Y002175D01*
X009963Y002223D02*
X009915Y002175D01*
X009818Y002175D01*
X009770Y002223D01*
X009770Y002320D01*
X009818Y002368D01*
X009866Y002368D01*
X009963Y002320D01*
X009963Y002465D01*
X009770Y002465D01*
X010004Y002625D02*
X010198Y002625D01*
X010198Y002915D01*
X010317Y002867D02*
X010366Y002915D01*
X010463Y002915D01*
X010511Y002867D01*
X010511Y002818D01*
X010463Y002770D01*
X010366Y002770D01*
X010317Y002722D01*
X010317Y002673D01*
X010366Y002625D01*
X010463Y002625D01*
X010511Y002673D01*
X010630Y002673D02*
X010679Y002625D01*
X010824Y002625D01*
X010824Y002915D01*
X010679Y002915D01*
X010630Y002867D01*
X010630Y002673D01*
X010757Y002465D02*
X010709Y002417D01*
X010709Y002368D01*
X010902Y002175D01*
X010709Y002175D01*
X010757Y002465D02*
X010854Y002465D01*
X010902Y002417D01*
X010944Y002625D02*
X010944Y002915D01*
X011137Y002915D02*
X010944Y002625D01*
X011137Y002625D02*
X011137Y002915D01*
X009950Y001739D02*
X009950Y001719D01*
X009650Y002175D02*
X009456Y002465D01*
X009337Y002417D02*
X009289Y002465D01*
X009192Y002465D01*
X009143Y002417D01*
X009337Y002223D01*
X009289Y002175D01*
X009192Y002175D01*
X009143Y002223D01*
X009143Y002417D01*
X009024Y002417D02*
X008975Y002465D01*
X008879Y002465D01*
X008830Y002417D01*
X008830Y002368D01*
X009024Y002175D01*
X008830Y002175D01*
X009000Y001884D02*
X008978Y001869D01*
X008935Y001819D01*
X008930Y001746D01*
X008963Y001684D01*
X009028Y001656D01*
X009063Y001664D02*
X009095Y001679D01*
X009118Y001706D01*
X009138Y001744D01*
X009138Y001804D01*
X009115Y001849D01*
X009063Y001884D01*
X009000Y001884D01*
X009337Y002223D02*
X009337Y002417D01*
X009259Y002625D02*
X009065Y002818D01*
X009065Y002867D01*
X009114Y002915D01*
X009210Y002915D01*
X009259Y002867D01*
X009378Y002915D02*
X009378Y002722D01*
X009475Y002625D01*
X009572Y002722D01*
X009572Y002915D01*
X009259Y002625D02*
X009065Y002625D01*
X008946Y002625D02*
X008946Y002673D01*
X008897Y002673D01*
X008897Y002625D01*
X008946Y002625D01*
X008789Y002673D02*
X008596Y002867D01*
X008596Y002673D01*
X008644Y002625D01*
X008741Y002625D01*
X008789Y002673D01*
X008789Y002867D01*
X008741Y002915D01*
X008644Y002915D01*
X008596Y002867D01*
X011010Y001559D02*
X011040Y001539D01*
D12*
X011431Y002084D02*
X011431Y002334D01*
X011433Y002352D01*
X011438Y002370D01*
X011446Y002387D01*
X011457Y002401D01*
X011471Y002414D01*
X011486Y002424D01*
X011504Y002430D01*
X011522Y002434D01*
X011540Y002434D01*
X011558Y002430D01*
X011576Y002424D01*
X011591Y002414D01*
X011605Y002401D01*
X011616Y002387D01*
X011624Y002370D01*
X011629Y002352D01*
X011631Y002334D01*
X011631Y002084D01*
X011629Y002066D01*
X011624Y002048D01*
X011616Y002031D01*
X011605Y002017D01*
X011591Y002004D01*
X011576Y001994D01*
X011558Y001988D01*
X011540Y001984D01*
X011522Y001984D01*
X011504Y001988D01*
X011486Y001994D01*
X011471Y002004D01*
X011457Y002017D01*
X011446Y002031D01*
X011438Y002048D01*
X011433Y002066D01*
X011431Y002084D01*
X011431Y003584D02*
X011431Y003834D01*
X011433Y003852D01*
X011438Y003870D01*
X011446Y003887D01*
X011457Y003901D01*
X011471Y003914D01*
X011486Y003924D01*
X011504Y003930D01*
X011522Y003934D01*
X011540Y003934D01*
X011558Y003930D01*
X011576Y003924D01*
X011591Y003914D01*
X011605Y003901D01*
X011616Y003887D01*
X011624Y003870D01*
X011629Y003852D01*
X011631Y003834D01*
X011631Y003584D01*
X011629Y003566D01*
X011624Y003548D01*
X011616Y003531D01*
X011605Y003517D01*
X011591Y003504D01*
X011576Y003494D01*
X011558Y003488D01*
X011540Y003484D01*
X011522Y003484D01*
X011504Y003488D01*
X011486Y003494D01*
X011471Y003504D01*
X011457Y003517D01*
X011446Y003531D01*
X011438Y003548D01*
X011433Y003566D01*
X011431Y003584D01*
X008231Y003584D02*
X008231Y003834D01*
X008229Y003852D01*
X008224Y003870D01*
X008216Y003887D01*
X008205Y003901D01*
X008191Y003914D01*
X008176Y003924D01*
X008158Y003930D01*
X008140Y003934D01*
X008122Y003934D01*
X008104Y003930D01*
X008086Y003924D01*
X008071Y003914D01*
X008057Y003901D01*
X008046Y003887D01*
X008038Y003870D01*
X008033Y003852D01*
X008031Y003834D01*
X008031Y003584D01*
X008033Y003566D01*
X008038Y003548D01*
X008046Y003531D01*
X008057Y003517D01*
X008071Y003504D01*
X008086Y003494D01*
X008104Y003488D01*
X008122Y003484D01*
X008140Y003484D01*
X008158Y003488D01*
X008176Y003494D01*
X008191Y003504D01*
X008205Y003517D01*
X008216Y003531D01*
X008224Y003548D01*
X008229Y003566D01*
X008231Y003584D01*
X008231Y002334D02*
X008231Y002084D01*
X008229Y002066D01*
X008224Y002048D01*
X008216Y002031D01*
X008205Y002017D01*
X008191Y002004D01*
X008176Y001994D01*
X008158Y001988D01*
X008140Y001984D01*
X008122Y001984D01*
X008104Y001988D01*
X008086Y001994D01*
X008071Y002004D01*
X008057Y002017D01*
X008046Y002031D01*
X008038Y002048D01*
X008033Y002066D01*
X008031Y002084D01*
X008031Y002334D01*
X008033Y002352D01*
X008038Y002370D01*
X008046Y002387D01*
X008057Y002401D01*
X008071Y002414D01*
X008086Y002424D01*
X008104Y002430D01*
X008122Y002434D01*
X008140Y002434D01*
X008158Y002430D01*
X008176Y002424D01*
X008191Y002414D01*
X008205Y002401D01*
X008216Y002387D01*
X008224Y002370D01*
X008229Y002352D01*
X008231Y002334D01*
D13*
X008530Y001866D02*
X008580Y001881D01*
X008618Y001879D01*
X008650Y001851D01*
X008665Y001846D02*
X008660Y001659D01*
X008500Y001666D02*
X008503Y001821D01*
X008530Y001866D01*
X008665Y001846D02*
X008698Y001871D01*
X008750Y001886D01*
X008788Y001871D01*
X008823Y001816D01*
X008820Y001666D01*
M02*
